<?xml version="1.0" standalone="no"?>
<!DOCTYPE svg PUBLIC "-//W3C//DTD SVG 20010904//EN"
 "http://www.w3.org/TR/2001/REC-SVG-20010904/DTD/svg10.dtd">
<svg version="1.0" xmlns="http://www.w3.org/2000/svg"
 width="120.000000pt" height="120.000000pt" viewBox="0 0 120.000000 120.000000"
 preserveAspectRatio="xMidYMid meet">
<metadata>
Created by potrace 1.11, written by Peter Selinger 2001-2013
</metadata>
<g transform="translate(0.000000,120.000000) scale(0.100000,-0.100000)"
fill="#000000" stroke="none">
<path d="M774 1142 c-9 -6 -25 -68 -39 -151 -3 -19 -8 -37 -10 -40 -2 -4 -6
-26 -10 -50 -20 -138 -79 -203 -223 -248 -45 -14 -84 -28 -87 -32 -9 -16 14
-30 88 -55 113 -38 147 -63 187 -138 18 -33 46 -145 74 -296 16 -82 36 -82 52
0 30 163 57 267 80 308 30 55 79 90 164 119 132 45 136 60 26 92 -88 26 -154
63 -168 95 -6 13 -15 24 -19 24 -8 0 -39 86 -44 123 -7 53 -46 230 -53 243 -4
7 -12 10 -18 6z"/>
<path d="M409 1118 c0 -2 -3 -18 -6 -37 -2 -19 -10 -50 -16 -70 -10 -31 -18
-37 -59 -49 -27 -7 -48 -17 -48 -22 0 -5 22 -16 50 -25 52 -17 51 -15 76 -118
10 -43 22 -41 34 5 23 92 40 112 98 122 7 1 17 7 23 13 8 8 -2 15 -36 25 -54
15 -58 20 -81 101 -8 31 -20 57 -25 57 -5 0 -9 -1 -10 -2z"/>
<path d="M231 573 c-5 -21 -14 -56 -20 -78 -13 -51 -51 -88 -116 -113 -27 -11
-51 -24 -52 -29 -2 -6 23 -20 56 -32 54 -19 109 -64 112 -92 1 -5 2 -12 3 -16
2 -5 6 -29 10 -56 9 -52 24 -69 38 -44 5 9 8 18 8 19 -1 2 4 17 10 33 7 17 13
37 15 45 13 63 44 89 137 119 49 16 41 33 -25 54 -70 22 -93 46 -112 115 -28
97 -31 106 -43 110 -6 2 -15 -14 -21 -35z"/>
</g>
</svg>
